<?xml version="1.0" encoding="UTF-8" standalone="no"?>
<svg
   xmlns:dc="http://purl.org/dc/elements/1.1/"
   xmlns:cc="http://creativecommons.org/ns#"
   xmlns:rdf="http://www.w3.org/1999/02/22-rdf-syntax-ns#"
   xmlns:svg="http://www.w3.org/2000/svg"
   xmlns="http://www.w3.org/2000/svg"
   version="1.1"
   id="svg10"
   xml:space="preserve"
   width="128"
   height="128"
   viewBox="0 0 128 128"><metadata
     id="metadata16"><rdf:RDF><cc:Work
         rdf:about=""><dc:format>image/svg+xml</dc:format><dc:type
           rdf:resource="http://purl.org/dc/dcmitype/StillImage" /><dc:title></dc:title></cc:Work></rdf:RDF></metadata><defs
     id="defs14"><clipPath
       clipPathUnits="userSpaceOnUse"
       id="clipPath26"><path
         d="M 0,660 H 660 V 0 H 0 Z"
         id="path24" /></clipPath></defs><g
     id="g438"
     transform="translate(-0.00108269,-1.5400848)"><path
       id="path415"
       style="fill:#ffffff;fill-opacity:1;fill-rule:nonzero;stroke:none;stroke-width:0.179702"
       d="M 27.306641,6.0273438 C 21.646496,6.0716522 15.800275,8.0544566 11.925566,12.315901 7.9292546,16.530366 6.3555562,22.651609 7.1804623,28.333905 8.1649922,35.524342 12.554403,41.917359 18.267904,46.24381 c 0.652314,0.303487 0.406796,1.144583 0.622489,1.724286 0.520775,2.400072 1.171841,4.77144 1.742419,7.16081 -1.022175,1.326792 -2.043321,2.654378 -3.066406,3.980469 1.887833,6.528888 3.775191,13.057916 5.666016,19.585937 3.393947,1.238098 6.787751,2.476589 10.18164,3.714844 -0.397657,6.390633 -0.794373,12.781325 -1.193359,19.171874 1.28641,-1.35096 2.573208,-2.701545 3.859375,-4.052733 -0.05071,3.247393 -0.102106,6.494783 -0.152344,9.742183 5.897852,4.45218 11.795114,8.90514 17.691407,13.35938 -0.977997,-4.15182 -1.956728,-8.30346 -2.935547,-12.45508 0.507934,0.0871 1.551209,-0.44118 1.387679,0.41832 0.171711,1.85373 0.254254,3.72962 0.480467,5.56981 1.586247,3.62079 3.173732,7.24103 4.76076,10.86148 0.977998,-2.32286 1.956082,-4.64568 2.933594,-6.96875 0.185962,1.14475 0.407282,0.0856 0.620592,-0.47432 1.046518,-2.89654 2.092447,-5.79328 3.139173,-8.68974 1.205961,3.26358 2.411605,6.52729 3.617188,9.79101 0.166311,-1.10228 0.447144,0.24734 0.683878,0.6528 0.813038,1.90611 1.626112,3.8122 2.439169,5.7183 1.573269,-3.7121 3.230923,-7.40318 4.750492,-11.12895 0.158006,-1.94324 0.313261,-3.88671 0.470211,-5.83004 0.468837,0.14635 1.667364,-0.25063 1.234879,0.56674 -0.940392,3.98879 -1.880723,7.9776 -2.820817,11.96647 5.89736,-4.45132 11.792229,-8.90593 17.689453,-13.35743 -0.05002,-3.24739 -0.100275,-6.49479 -0.15039,-9.742183 1.286165,1.35119 2.572967,2.701773 3.859375,4.052733 -0.398983,-6.390549 -0.795704,-12.781241 -1.193359,-19.171874 3.393889,-1.238255 6.787692,-2.476745 10.181642,-3.714844 1.89083,-6.528018 3.77817,-13.057051 5.66601,-19.585937 -1.02308,-1.326092 -2.04423,-2.653676 -3.0664,-3.980469 0.65811,-2.866688 1.53059,-5.691539 1.98633,-8.599609 5.91582,-4.355279 10.49499,-10.889618 11.4746,-18.273438 0.8253,-5.72047 -0.83247,-11.857983 -4.86441,-16.075105 -3.81099,-4.0537737 -9.41299,-6.0503205 -14.90376,-6.135021 -3.490242,-0.061441 -6.942848,0.4508492 -10.41987,0.6722276 -3.58707,0.2963373 -7.174118,0.5929467 -10.761174,0.8894613 5.718772,2.7778731 11.470855,5.4891261 17.173612,8.2977081 1.917155,1.071336 3.999952,2.532959 4.486542,4.815573 0.34322,2.46533 -1.12101,4.719591 -2.542966,6.597656 -0.931613,1.182564 -1.989206,2.258569 -3.089844,3.283203 -0.829926,-0.04881 -1.680852,-0.235664 -2.498184,-0.200888 -2.376555,1.018739 -4.752464,2.038988 -7.128769,3.05831 -2.891913,-0.402449 -5.783963,-0.803903 -8.675781,-1.207031 -1.83284,1.656216 -3.668107,3.309744 -5.501954,4.964844 C 71.441847,36.622529 70.768657,36.051634 69.884164,35.839819 67.922699,35.086122 65.962008,34.330408 64,33.578125 c -2.342539,0.923809 -4.730836,1.770987 -7.045001,2.742432 -0.451381,0.20502 -0.916669,1.234187 -1.35546,0.628241 C 53.865286,35.383074 52.12994,33.81856 50.396484,32.251953 47.504666,32.65508 44.612616,33.056536 41.720703,33.458984 39.313744,32.426567 36.907268,31.393025 34.5,30.361328 c -0.802145,0.07946 -1.604164,0.160179 -2.40625,0.240234 -2.347672,-2.231258 -4.731007,-4.744997 -5.564453,-7.966796 -0.486073,-1.751009 0.296129,-3.590766 1.62578,-4.750703 2.015496,-1.918523 4.652831,-2.850011 7.067026,-4.06233 4.363438,-2.081969 8.728171,-4.1612351 13.09235,-6.2416549 C 41.712197,7.0765142 35.11557,6.4849609 28.509766,6.0371094 28.108737,6.0256303 27.707801,6.0232532 27.306641,6.0273438 Z m 7.982421,59.6972652 c -0.04492,0.616537 -0.08984,1.233073 -0.134765,1.84961 C 34.234373,67.39546 33.2403,67.366838 32.365593,67.096522 31.853267,66.531616 31.141605,66.051278 30.75,65.435156 c 0,-0.601432 0,-1.202864 0,-1.804297 0.540755,-0.590395 1.059184,0.03938 1.584162,0.311245 0.984967,0.594169 1.969934,1.188337 2.9549,1.782505 z M 97.25,63.632812 c -0.05315,0.644214 0.103119,1.377412 -0.07199,1.969802 -0.58252,0.505669 -1.090645,1.162174 -1.718308,1.576317 -0.871985,0.131112 -1.74397,0.262223 -2.615955,0.393335 -0.04492,-0.615886 -0.08984,-1.231771 -0.134766,-1.847657 1.327474,-0.800781 2.654948,-1.601562 3.982422,-2.402343 0.186198,0.103515 0.372396,0.207031 0.558594,0.310546 z M 41.628906,92.224609 c -0.730569,-0.253514 0.708133,-1.196862 0.02288,-0.07935 z m 45.074219,-0.173828 c -0.616797,0.449887 -0.675387,-1.212861 -0.06688,-0.07045 z" /><path
       id="path28"
       style="fill:#231f20;fill-opacity:1;fill-rule:nonzero;stroke:none;stroke-width:0.179702"
       d="M 27.782106,10.815437 C 8.9777444,10.774811 5.8522308,32.571966 23.083199,43.789366 l 0.479646,3.242987 2.276656,9.187576 -2.995386,3.891049 4.312748,14.916475 11.262815,4.107406 -0.599374,9.619284 8.746705,-9.187241 -0.119725,-5.836578 11.741347,-12.214206 -7.188777,11.997852 -0.568331,8.804871 6.558734,-1.076105 -8.985417,6.214613 -3.414429,11.727493 -3.714489,-1.945526 -0.119725,7.674094 5.151947,3.89139 -1.198008,-5.08051 3.713747,-0.21602 3.414429,-13.565009 2.39638,-1.945524 1.677653,8.538844 1.318106,16.429619 1.078279,-15.240503 1.317362,-1.081105 1.078649,7.350058 1.437461,-7.674093 1.857241,-0.324362 1.857243,0.324362 1.437831,7.674093 1.078279,-7.350058 1.318102,1.081105 1.077909,15.240503 1.318106,-16.429619 1.677281,-8.538844 2.396383,1.945524 3.414799,13.565009 3.714116,0.21602 -1.198006,5.08051 5.151575,-3.89139 -0.119725,-7.674094 -3.714116,1.945526 -3.414432,-11.727493 -8.985787,-6.214613 6.558736,1.076105 -0.568333,-8.804871 -7.188777,-11.997852 11.741349,12.214206 -0.119725,5.836578 8.746333,9.187241 -0.599003,-9.619284 11.262439,-4.107406 4.31349,-14.916475 -2.99539,-3.891049 2.27629,-9.187576 0.47928,-3.242987 c 17.23151,-11.2174 14.10634,-33.014543 -4.69817,-32.973929 -0.764408,0.0016 -1.554965,0.03968 -2.370883,0.115681 11.133343,5.176659 11.273473,14.156144 1.161422,23.32697 l 2.313611,4.127743 -3.834212,-2.810611 -3.234839,-0.324698 -7.308876,3.13464 -7.787778,-1.08077 -6.948957,6.269285 -3.714484,-3.134646 -4.493081,-1.729167 -4.492706,1.729167 -3.714119,3.134646 -6.949693,-6.269285 -7.787412,1.08077 -7.308872,-3.13464 -3.234471,0.324698 -3.834211,2.810611 2.313607,-4.127743 c -10.112437,-9.170826 -9.972295,-18.150311 1.161055,-23.32697 -0.815908,-0.07601 -1.606112,-0.114027 -2.370515,-0.115681 z m -5.626789,2.10321 c -4.520692,2.696628 -6.223324,7.902005 -5.800465,12.628916 l -2.608493,3.969058 c -0.0157,-0.06059 -0.03198,-0.121418 -0.04693,-0.182349 -1.062349,-4.273408 -0.517561,-9.049167 2.526824,-12.593584 1.609696,-1.873762 3.655846,-3.10466 5.92906,-3.822041 z m 83.688623,0 c 2.27302,0.717381 4.31919,1.948279 5.92869,3.822041 3.04457,3.544417 3.58936,8.320176 2.52683,12.593584 -0.0151,0.06093 -0.031,0.121757 -0.0466,0.182349 l -2.6085,-3.969058 c 0.42286,-4.726911 -1.27996,-9.932288 -5.80046,-12.628916 z m -74.433449,44.868768 8.866058,5.350197 -0.719096,9.944315 -6.463028,-0.971761 3.168324,3.620357 -6.050634,-4.054065 -4.253257,-4.106741 v -6.756004 z m 65.178276,0 5.451633,3.026298 v 6.756004 l -4.253629,4.106741 -6.050262,4.054065 3.167954,-3.620357 -6.463025,0.971761 -0.718733,-9.944315 z" /></g></svg>
